<svg viewBox="0 0 33 34" fill="none" xmlns="http://www.w3.org/2000/svg"><g clip-path="url(#a)"><path d="m32.38 15.53-14.41-14.4a2.13 2.13 0 0 0-3.01 0l-2.99 2.98 3.8 3.8a2.53 2.53 0 0 1 3.2 3.22l3.65 3.65a2.52 2.52 0 0 1 2.62 4.18 2.53 2.53 0 0 1-4.14-2.74l-3.42-3.4v8.97a2.53 2.53 0 1 1-2.91 4.05 2.52 2.52 0 0 1 .83-4.13v-9.06a2.52 2.52 0 0 1-1.37-3.31l-3.73-3.75-9.88 9.87a2.14 2.14 0 0 0 0 3.01l14.4 14.4c.84.84 2.18.84 3.01 0l14.35-14.33c.83-.83.83-2.18 0-3.01Z" fill="#F05032"/></g><defs><clipPath id="a"><path fill="#fff" transform="translate(0 .5)" d="M0 0h33v33h-33z"/></clipPath></defs></svg>