<svg viewBox="0 0 45 44" fill="none" xmlns="http://www.w3.org/2000/svg"><mask id="a" style="mask-type:alpha" maskUnits="userSpaceOnUse" x="0" y="0" width="45" height="44"><path fill="#D9D9D9" d="M.07 0h44v44h-44z"/></mask><g mask="url(#a)"><path d="m22.07 24.57-8.98 8.98c-.34.34-.77.5-1.29.5-.51 0-.94-.16-1.28-.5-.33-.34-.5-.76-.5-1.28s.17-.95.5-1.29l8.98-8.98-8.98-8.98c-.33-.34-.5-.77-.5-1.29s.17-.94.5-1.28c.34-.34.77-.5 1.28-.5.52 0 .95.16 1.29.5l8.98 8.98 8.98-8.98c.34-.34.77-.5 1.29-.5a1.7 1.7 0 0 1 1.78 1.78c0 .52-.16.95-.5 1.29l-8.98 8.98 8.98 8.98c.34.34.5.77.5 1.29a1.72 1.72 0 0 1-1.78 1.78c-.52 0-.95-.16-1.29-.5l-8.98-8.98Z" fill="#BE87E6"/></g></svg>