<svg viewBox="0 0 45 44" fill="none" xmlns="http://www.w3.org/2000/svg"><mask id="a" style="mask-type:alpha" maskUnits="userSpaceOnUse" x="0" y="0" width="45" height="44"><path fill="#D9D9D9" d="M.07 0h44v44h-44z"/></mask><g mask="url(#a)"><path d="m23.96 22-4.69 4.69c-.25.25-.38.56-.38.94 0 .38.13.7.38.97.27.29.6.43.98.42.38 0 .71-.14.98-.42l5.45-5.44a1.59 1.59 0 0 0 0-2.32l-5.48-5.47a1.3 1.3 0 0 0-.96-.4c-.37 0-.7.14-.97.43a1.4 1.4 0 0 0 .02 1.93l4.67 4.67Zm-1.89 17.42c-2.4 0-4.67-.46-6.79-1.37a17.6 17.6 0 0 1-5.53-3.73 17.59 17.59 0 0 1-3.72-5.53 16.95 16.95 0 0 1-1.38-6.79 17.6 17.6 0 0 1 5.1-12.32 17.58 17.58 0 0 1 5.53-3.72 16.95 16.95 0 0 1 6.79-1.38c2.4 0 4.67.46 6.8 1.37a17.6 17.6 0 0 1 5.52 3.73 17.59 17.59 0 0 1 3.73 5.53 16.95 16.95 0 0 1 1.37 6.79c0 2.4-.46 4.67-1.37 6.79a17.6 17.6 0 0 1-3.73 5.53 17.59 17.59 0 0 1-5.52 3.72 16.95 16.95 0 0 1-6.8 1.38Zm0-2.75c4.1 0 7.56-1.42 10.4-4.27a14.16 14.16 0 0 0 4.27-10.4c0-4.1-1.42-7.56-4.26-10.4a14.16 14.16 0 0 0-10.4-4.27c-4.1 0-7.57 1.42-10.41 4.27a14.16 14.16 0 0 0-4.27 10.4c0 4.1 1.43 7.56 4.27 10.4a14.16 14.16 0 0 0 10.4 4.27Z" fill="#BE87E6"/></g></svg>