<svg viewBox="0 0 33 34" fill="none" xmlns="http://www.w3.org/2000/svg"><path d="M0 7.6h7.71v2.27h-7.71v-2.27Zm0-4.22h7.71v2.27h-7.71v-2.27Zm13.84 8.4h-13.84v2.27h13.32c1.46 0 4.87.03 6.13 2.08v-1.27c-.62-2.01-2.43-3.08-5.6-3.08Zm.03 4.21h-13.87v2.27h13.32c3.24 0 5.29.13 6.13.59v-1c-.65-1.6-3.37-1.86-5.58-1.86Zm-.03 10.7h-13.84v-2.27h13.32c1.46 0 4.87-.03 6.13-2.07v1.27c-.62 2-2.43 3.08-5.6 3.08Zm.03-4.21h-13.87v-2.27h13.32c3.24 0 5.29-.13 6.13-.58v1c-.65 1.59-3.37 1.85-5.58 1.85Zm8.95 8.14h10.18v-1.4h-9.89c-.87 0-2.95-.03-3.7-1.23v.78c.37 1.2 1.47 1.85 3.41 1.85Zm-.03-2.57h10.18v-1.39h-9.86c-1.97 0-3.2-.06-3.7-.36v.62c.4.97 2.05 1.13 3.38 1.13Z" fill="#e0e0e0"/></svg>
