<svg viewBox="0 0 44 44" fill="none" xmlns="http://www.w3.org/2000/svg"><g clip-path="url(#a)"><path d="M22 .54a22 22 0 0 0-6.96 42.88c1.1.2 1.5-.48 1.5-1.06l-.02-3.74c-6.12 1.33-7.41-2.95-7.41-2.95-1-2.54-2.45-3.22-2.45-3.22-2-1.36.15-1.34.15-1.34 2.21.16 3.37 2.27 3.37 2.27 1.97 3.36 5.15 2.4 6.41 1.83.2-1.42.77-2.4 1.4-2.94-4.9-.55-10.03-2.45-10.03-10.88 0-2.4.86-4.36 2.27-5.9-.25-.55-1-2.79.2-5.82 0 0 1.83-.6 6.04 2.25a21.1 21.1 0 0 1 11 0c4.18-2.84 6.02-2.25 6.02-2.25a8.04 8.04 0 0 1 .22 5.82 8.52 8.52 0 0 1 2.26 5.9c0 8.46-5.14 10.32-10.04 10.86.77.66 1.49 2 1.49 4.07 0 2.94-.03 5.3-.03 6.02 0 .58.38 1.27 1.51 1.05a21.92 21.92 0 0 0 15.1-20.85 22 22 0 0 0-22-22Z" fill="#e0e0e0"/></g><defs><clipPath id="a"><path fill="#fff" d="M0 0h44v44h-44z"/></clipPath></defs></svg>
