<svg viewBox="0 0 33 34" fill="none" xmlns="http://www.w3.org/2000/svg"><g clip-path="url(#a)"><path d="M8.16 6.95c-.46 0-.93.11-1.4.3-.46.2-.92.49-1.38.84-.48.38-.93.8-1.33 1.26a15.3 15.3 0 0 0-1.22 1.6 18.9 18.9 0 0 0-2.54 5.88 11.92 11.92 0 0 0-.29 2.14v.13c0 .36.05.73.1 1.07.1.36.25.7.43.99.2.29.44.53.74.7.3.2.65.3 1.07.3.36 0 .73-.09 1.12-.26a7.3 7.3 0 0 0 2.24-1.57c.28-.26.54-.54.8-.8l-.27.83c-.12.4-.25.79-.35 1.17a23 23 0 0 0-.3 1.02c-.07.3-.12.5-.12.62v.3c0 .33.03.56.14.71a.55.55 0 0 0 .46.2.6.6 0 0 0 .36-.12c.11-.08.2-.19.3-.3v-.01c.08-.12.16-.25.23-.39.07-.13.1-.26.15-.37l.1-.33.19-.68.26-.9.31-1.04.31-1.03a39.78 39.78 0 0 1 .5-1.58l.07-.21.02-.05.06.03.02-.07c.1-.3.21-.59.32-.86.1-.28.2-.55.28-.82.2-.57.31-1.17.3-1.78a.88.88 0 0 0-.06-.35.6.6 0 0 0-.17-.24.69.69 0 0 0-.24-.14.86.86 0 0 0-.78.13c-.18.12-.31.32-.41.58l-.76 2.43c-.12.25-.27.48-.43.7-.67.95-1.46 1.8-2.35 2.53-.29.23-.56.4-.83.55-.2.12-.45.2-.69.2a.66.66 0 0 1-.43-.14.88.88 0 0 1-.28-.38 2.18 2.18 0 0 1-.14-.53c-.02-.2-.04-.39-.04-.58 0-.57.1-1.2.28-1.92a18.13 18.13 0 0 1 3.09-6.2c.44-.55.88-.97 1.34-1.3.45-.34.85-.5 1.24-.5.24 0 .48.06.68.2.2.13.4.36.58.68.18.35.37.63.53.83.16.2.35.31.56.31a.7.7 0 0 0 .57-.29c.16-.19.23-.45.23-.76 0-.13-.01-.28-.04-.42a1.2 1.2 0 0 0-.2-.46 4.55 4.55 0 0 0-1.38-1.41c-.47-.28-1-.43-1.55-.44Zm15.07 1.18c-.2 0-.4.06-.56.16-.2.15-.36.36-.44.6l-2.6 6.54-.57 1.44-.62 1.58c-.1.24-.17.5-.24.75l-.35.3a4.7 4.7 0 0 1-.81.5c-.26.13-.47.18-.64.18-.11 0-.19-.03-.24-.08-.05-.04-.07-.11-.07-.22 0-.26.03-.54.11-.85a12.06 12.06 0 0 1 .68-1.89l.38-.88.29-.74c.06-.16.1-.34.12-.52a.98.98 0 0 0-.2-.6.65.65 0 0 0-.54-.26.64.64 0 0 0-.52.25 5.4 5.4 0 0 0-.63 1.32 14.23 14.23 0 0 1-.86 1.87c-.22.4-.48.8-.76 1.16-.29.36-.6.66-.93.9-.33.24-.68.36-1.03.36-.12 0-.2-.05-.23-.12a.65.65 0 0 1-.07-.31c0-.28.06-.58.15-.89a11.4 11.4 0 0 1 .7-1.77l.4-.77.34-.64c.1-.19.15-.34.19-.46a.83.83 0 0 0 .03-.2c0-.1-.02-.2-.07-.3a.72.72 0 0 0-.47-.32.9.9 0 0 0-.8.14c-.19.12-.32.32-.44.58a31.78 31.78 0 0 0-1.66 4.2c-.1.3-.18.63-.23.95l-.03.32c0 .3.04.56.13.76.1.2.2.37.34.5.14.12.31.21.5.26.18.05.37.08.56.08a3.44 3.44 0 0 0 2.16-.76 4.27 4.27 0 0 0 1.19-1.34c-.05.3-.1.6-.1.85 0 .45.08.78.27.98a.96.96 0 0 0 .72.3c.29 0 .6-.08.96-.24.34-.15.7-.36 1.05-.61.1-.06.18-.13.27-.2v.05c.04.18.1.34.2.49h.01a1.18 1.18 0 0 0 1.02.45c.35 0 .7-.08 1.08-.24a5.9 5.9 0 0 0 1.11-.66c.37-.27.75-.6 1.12-.96h.01l-.19.43-.92 2.02c-.32.69-.65 1.37-.95 2.05l-.14.39c-.05.12-.12.26-.16.4-.05.15-.1.28-.13.43-.04.15-.05.3-.05.43 0 .29.08.5.23.62a1.03 1.03 0 0 0 1 .05h.01a1.51 1.51 0 0 0 .63-.73c.09-.16.15-.33.22-.5v-.01l.11-.34.23-.6.26-.7.27-.72.24-.6.13-.35.11-.26.19-.43.22-.51.23-.52.2-.47.14-.31.42-.78c.17-.29.35-.56.54-.85l.64-.8c.22-.26.45-.48.69-.69.23-.19.47-.36.71-.47.22-.11.45-.17.69-.18.12 0 .2.03.24.06a.18.18 0 0 1 .06.14c0 .1-.06.28-.2.48-.14.22-.3.46-.51.72l-.7.82-.7.86c-.2.27-.4.54-.57.83-.14.23-.23.47-.28.73v.04c-.01.02-.02.02-.02.05v.08a1 1 0 0 0 .38.83c.25.21.6.3 1.05.3.48 0 .92-.09 1.33-.28.41-.18.83-.43 1.27-.76.43-.33.88-.71 1.36-1.16a63.6 63.6 0 0 1 1.63-1.48 1.43 1.43 0 0 0 .48-1.05.87.87 0 0 0-.11-.45.38.38 0 0 0-.34-.2.5.5 0 0 0-.23.06c-.07.03-.15.08-.23.14-.15.04.02.08.04.14-.74.67-1.38 1.22-1.89 1.66-.52.46-.96.81-1.3 1.09-.25.2-.52.39-.79.56a.95.95 0 0 1-.4.16c-.1 0-.18-.03-.21-.06a.2.2 0 0 1-.06-.15.3.3 0 0 1 .05-.1l.16-.2.55-.65.69-.82a10.45 10.45 0 0 0 1.23-1.9c.13-.32.21-.63.21-.92a1.15 1.15 0 0 0-.53-1 1.7 1.7 0 0 0-.51-.25c-.48-.13-.99-.1-1.44.1-.29.13-.56.28-.82.46a7.83 7.83 0 0 0-1.3 1.14l.05-.24.05-.29.01-.2a.73.73 0 0 0-.17-.52c-.12-.12-.3-.18-.55-.18-.17 0-.33.1-.47.27a3 3 0 0 0-.36.57c-.1.21-.2.44-.28.66l-.18.52-.2.67a.44.44 0 0 0-.06.02.45.45 0 0 0-.2.12h.01l-.55.53c-.2.2-.41.4-.63.59l-.68.56a8.83 8.83 0 0 1-1.22.8c-.13.07-.28.11-.43.12-.08 0-.11-.02-.13-.05a.43.43 0 0 1-.05-.22c0-.15.03-.33.09-.53l.18-.53.04-.04.51-1.31c.2-.5.4-1.03.64-1.59l.7-1.72.7-1.7.65-1.51.5-1.17c.09-.16.14-.3.2-.44.04-.13.07-.27.07-.4 0-.28-.09-.49-.25-.62a.83.83 0 0 0-.53-.18Z" fill="#FF6B6B"/></g><defs><clipPath id="a"><path fill="#fff" transform="translate(0 .5)" d="M0 0h33v33h-33z"/></clipPath></defs></svg>
