<svg viewBox="0 0 33 34" fill="none" xmlns="http://www.w3.org/2000/svg"><g clip-path="url(#a)"><path d="M0 .5h33v33h-33v-33Zm30.3 25.13c-.24-1.5-1.22-2.77-4.13-3.95-1.01-.48-2.14-.8-2.47-1.57-.13-.45-.15-.7-.07-.97.21-.89 1.26-1.15 2.09-.9.53.16 1.03.57 1.34 1.23 1.42-.93 1.42-.93 2.41-1.54a5.67 5.67 0 0 0-.8-1.08c-.87-.97-2.02-1.46-3.9-1.42l-.97.12c-.93.23-1.82.73-2.35 1.39a4.31 4.31 0 0 0 .78 6.14c1.88 1.4 4.62 1.71 4.97 3.03.33 1.61-1.2 2.13-2.7 1.94-1.12-.24-1.73-.8-2.41-1.83l-2.52 1.44c.29.66.62.95 1.11 1.53 2.4 2.41 8.38 2.29 9.45-1.38.04-.13.33-.97.1-2.27l.07.09Zm-12.35-9.96h-3.1v7.98c0 1.7.08 3.25-.2 3.73-.45.94-1.62.82-2.15.66a2.65 2.65 0 0 1-1.14-1.18c-.09-.14-.15-.27-.18-.27l-2.5 1.55a4.86 4.86 0 0 0 1.81 2.08c1.18.7 2.76.93 4.41.56 1.08-.3 2-.95 2.5-1.94.7-1.28.55-2.84.54-4.6.02-2.82 0-5.65 0-8.5v-.07Z" fill="#F7DF1E"/></g><defs><clipPath id="a"><path fill="#fff" transform="translate(0 .5)" d="M0 0h33v33h-33z"/></clipPath></defs></svg>