<svg viewBox="0 0 45 44" fill="none" xmlns="http://www.w3.org/2000/svg"><mask id="a" style="mask-type:alpha" maskUnits="userSpaceOnUse" x="0" y="0" width="45" height="44"><path fill="#D9D9D9" d="M.07 0h44v44h-44z"/></mask><g mask="url(#a)"><path d="M20.54 5.5v-2.14a1.5 1.5 0 0 1 1.54-1.53 1.49 1.49 0 0 1 1.52 1.53v2.14a1.5 1.5 0 0 1-1.54 1.53 1.49 1.49 0 0 1-1.52-1.53Zm0 35.14v-2.14a1.5 1.5 0 0 1 1.54-1.53 1.48 1.48 0 0 1 1.52 1.53v2.14a1.5 1.5 0 0 1-1.54 1.53 1.49 1.49 0 0 1-1.52-1.53Zm20.17-17.11h-2.14a1.5 1.5 0 0 1-1.53-1.54 1.49 1.49 0 0 1 1.53-1.52h2.14a1.5 1.5 0 0 1 1.53 1.54 1.48 1.48 0 0 1-1.53 1.52Zm-35.14 0h-2.14a1.5 1.5 0 0 1-1.53-1.54 1.49 1.49 0 0 1 1.53-1.52h2.14a1.5 1.5 0 0 1 1.53 1.54 1.48 1.48 0 0 1-1.53 1.52Zm30.62-13.5-.95.95c-.3.3-.65.44-1.06.43a1.53 1.53 0 0 1-1.08-.47 1.5 1.5 0 0 1-.45-1.08c0-.42.14-.79.44-1.1l.93-.92c.3-.3.66-.46 1.09-.46.43 0 .8.15 1.1.46.3.3.45.67.44 1.1 0 .43-.16.8-.46 1.1Zm-25.1 25.17-.97.96c-.3.3-.65.46-1.07.45a1.54 1.54 0 0 1-1.08-.48c-.3-.3-.46-.67-.45-1.1 0-.43.16-.8.47-1.1l.91-.91c.29-.3.64-.45 1.07-.45.43 0 .8.16 1.1.46.3.3.45.66.45 1.08 0 .42-.14.78-.43 1.09Zm22.91.92-.94-.92a1.4 1.4 0 0 1-.43-1.08c0-.42.17-.78.47-1.09.3-.3.66-.45 1.08-.45.42 0 .79.14 1.1.44l.92.96c.3.3.46.65.46 1.07 0 .42-.15.78-.46 1.08-.3.3-.67.46-1.1.45-.42 0-.8-.16-1.1-.46Zm-25.1-25.17-.96-.93a1.4 1.4 0 0 1-.44-1.08c0-.43.16-.8.47-1.1.3-.3.67-.46 1.1-.45.43 0 .8.16 1.1.46l.92.95c.3.3.44.65.44 1.06 0 .42-.15.78-.46 1.08-.3.3-.65.44-1.08.45a1.5 1.5 0 0 1-1.09-.44Zm13.17 21.6c-2.93 0-5.42-1.03-7.47-3.08a10.18 10.18 0 0 1-3.07-7.48c0-2.93 1.03-5.41 3.08-7.46a10.18 10.18 0 0 1 7.47-3.07c2.93 0 5.42 1.02 7.46 3.07a10.18 10.18 0 0 1 3.07 7.48c0 2.93-1.02 5.41-3.07 7.46a10.18 10.18 0 0 1-7.47 3.07Zm0-3.06c2.09 0 3.86-.73 5.31-2.18a7.22 7.22 0 0 0 2.18-5.3c0-2.1-.73-3.87-2.18-5.32a7.22 7.22 0 0 0-5.3-2.18c-2.1 0-3.87.73-5.32 2.18a7.22 7.22 0 0 0-2.17 5.3c0 2.1.72 3.87 2.17 5.32a7.22 7.22 0 0 0 5.3 2.18Z" fill="#BE87E6"/></g></svg>
