<svg viewBox="0 0 45 44" fill="none" xmlns="http://www.w3.org/2000/svg"><mask id="a" style="mask-type:alpha" maskUnits="userSpaceOnUse" x="0" y="0" width="45" height="44"><path fill="#D9D9D9" d="M.07 0h44v44h-44z"/></mask><g mask="url(#a)"><path d="M7.86 32.33c-.39 0-.71-.13-.98-.4-.26-.26-.4-.59-.4-.98s.14-.71.4-.97c.27-.27.6-.4.98-.4h28.42c.39 0 .72.13.98.4.26.26.4.59.4.98a1.36 1.36 0 0 1-1.38 1.37h-28.42Zm0-8.95a1.36 1.36 0 0 1-1.38-1.38 1.38 1.38 0 0 1 1.38-1.38h28.42a1.36 1.36 0 0 1 1.38 1.38 1.36 1.36 0 0 1-1.38 1.38h-28.42Zm0-8.96c-.39 0-.71-.13-.98-.4-.26-.26-.4-.59-.4-.98a1.36 1.36 0 0 1 1.38-1.37h28.42c.39 0 .72.13.98.4.26.26.4.59.4.98s-.14.71-.4.97c-.26.27-.6.4-.98.4h-28.42Z" fill="#BE87E6"/></g></svg>