<svg viewBox="0 0 45 44" fill="none" xmlns="http://www.w3.org/2000/svg"><mask id="a" style="mask-type:alpha" maskUnits="userSpaceOnUse" x="0" y="0" width="45" height="44"><path fill="#D9D9D9" d="M.07 0h44v44h-44z"/></mask><g mask="url(#a)"><path d="m15.6 22 3.02-3.02c.27-.27.41-.6.42-.96 0-.36-.14-.69-.42-.97a1.35 1.35 0 0 0-.98-.43c-.37 0-.7.14-.98.43l-3.8 3.79a1.52 1.52 0 0 0-.46 1.16 1.52 1.52 0 0 0 .47 1.16l3.8 3.81a1.36 1.36 0 0 0 1.97 0 1.32 1.32 0 0 0 0-1.93l-3.04-3.04Zm12.94 0-3.03 3.04c-.28.27-.42.6-.42.96s.13.69.42.97a1.34 1.34 0 0 0 1.96 0l3.8-3.81a1.52 1.52 0 0 0 .48-1.16 1.52 1.52 0 0 0-.47-1.16l-3.81-3.81a1.36 1.36 0 0 0-1.5-.3c-.17.06-.33.16-.46.3a1.3 1.3 0 0 0 0 1.93l3.03 3.04Zm-18.74 15.58a3.2 3.2 0 0 1-2.35-.96 3.2 3.2 0 0 1-.96-2.35v-24.54c0-.93.32-1.7.96-2.35a3.2 3.2 0 0 1 2.35-.96h24.54c.93 0 1.71.32 2.35.96.64.64.96 1.42.96 2.35v24.54a3.2 3.2 0 0 1-.96 2.35 3.2 3.2 0 0 1-2.35.96h-24.54Zm0-2.75h24.54c.14 0 .27-.06.39-.17a.54.54 0 0 0 .17-.4v-24.53a.54.54 0 0 0-.17-.39.54.54 0 0 0-.39-.17h-24.54a.54.54 0 0 0-.39.17.54.54 0 0 0-.17.4v24.53c0 .14.06.27.17.39.12.11.25.17.4.17Z" fill="#BE87E6"/></g></svg>