<svg viewBox="0 0 33 34" fill="none" xmlns="http://www.w3.org/2000/svg"><g clip-path="url(#a)"><path d="M16.5.5a16.5 16.5 0 1 1 0 33 16.5 16.5 0 0 1 0-33Zm-3.28 22a4.2 4.2 0 0 1-.03 2.46l-.1.25a4.63 4.63 0 0 1-.87 1.36c-.95 1.04-2.3 1.43-2.87 1.1-.61-.36-.3-1.83.8-3.01 1.2-1.26 2.92-2.07 2.92-2.07l.15-.1Zm13.63-14.94c-.75-2.93-5.6-3.9-10.2-2.26-2.74.97-5.7 2.5-7.83 4.5-2.54 2.36-2.94 4.42-2.78 5.28.6 3.04 4.76 5.03 6.47 6.5v.02c-.5.24-4.2 2.1-5.07 4.02-.93 2.02.15 3.46.85 3.65 2.16.6 4.4-.5 5.59-2.27a5.7 5.7 0 0 0 .55-5.05 6.41 6.41 0 0 1 2.52-.15c2.89.33 3.47 2.15 3.34 2.9a1.98 1.98 0 0 1-.93 1.29c-.2.12-.26.16-.24.25.02.12.12.12.28.1a2.28 2.28 0 0 0 1.57-2.02c.06-1.77-1.63-3.75-4.64-3.71a7.44 7.44 0 0 0-2.58.35.5.5 0 0 0-.14-.15c-1.86-2-5.3-3.4-5.16-6.06.04-.97.4-3.53 6.6-6.62 5.1-2.54 9.16-1.83 9.86-.29 1.01 2.2-2.16 6.31-7.46 6.91-2.03.23-3.08-.55-3.35-.85-.28-.3-.33-.33-.43-.26-.16.08-.06.35 0 .51.17.42.8 1.14 1.92 1.5.97.32 3.34.5 6.19-.6 3.2-1.25 5.69-4.7 4.97-7.58l.1.1Z" fill="#C69"/></g><defs><clipPath id="a"><path fill="#fff" transform="translate(0 .5)" d="M0 0h33v33h-33z"/></clipPath></defs></svg>