<svg xmlns="http://www.w3.org/2000/svg" style="display: none;">
    <!-- HTML -->
    <symbol viewBox="0 0 33 34" fill="none" xmlns="http://www.w3.org/2000/svg" id='html'><g clip-path="url(#a)"><path d="M2.06.5h28.88l-2.63 29.65-11.84 3.35-11.78-3.35-2.63-29.65Zm9.67 13.4-.32-3.73h13.83l.32-3.6h-18.12l.96 11h12.55l-.45 4.72-4 1.1-4.06-1.11-.26-2.9h-3.59l.45 5.73 7.46 2 7.4-1.99 1.02-11.21h-13.19Z" fill="#E34F26"/></g><defs><clipPath id="a"><path fill="#fff" transform="translate(0 .5)" d="M0 0h33v33h-33z"/></clipPath></defs></symbol>
    <!-- Pug -->
    <symbol xmlns="http://www.w3.org/2000/svg" viewBox="0 0 32 32" id='pug'><title>file_type_pug</title><path d="M25.514,12.846c-.052-.938.209-1.825-.209-2.554-1.043-1.825-3.649-2.867-8.863-2.867V7.372h0v.052c-5.735,0-8.185,1.043-9.227,2.867a5.6,5.6,0,0,0-.469,2.554,9.546,9.546,0,0,0-.261,2.45c.156,1.147.261,2.294.417,3.336.156.886,1.408,1.564,1.564,2.4.313,2.242,2.294,3.284,8.028,3.284v.261h-.1v-.261c5.213,0,7.4-1.043,7.716-3.284.1-.834,1.147-1.512,1.3-2.4.156-1.043.209-2.19.365-3.336A11.774,11.774,0,0,0,25.514,12.846Z" style="fill:#efcca3"/><path d="M16.182,13.68a3.241,3.241,0,0,1,2.19,1.147c.73.626,1.929,1.043,2.45,1.616a4.715,4.715,0,0,1,1.408,1.981,8.9,8.9,0,0,1,.313,2.242c0,.261.156.209.573,0a9.02,9.02,0,0,0,2.19-1.877c-.156.886-1.251,1.668-1.355,2.5-.313,2.242-2.5,3.336-7.872,3.336h.313" style="fill:#ccac8d"/><path d="M19.519,11.908c.209.678.886,3.024-.469,2.242a2.557,2.557,0,0,1,.938,1.564,1.831,1.831,0,0,0,1.3,1.408,3.479,3.479,0,0,0,2.554-.626,2.956,2.956,0,0,0,.678-3.284,2.43,2.43,0,0,0-2.137-1.616C21.4,11.334,19.31,11.126,19.519,11.908Z" style="fill:#ccac8d"/><circle cx="22.178" cy="14.41" r="1.929"/><circle cx="21.656" cy="13.524" r="0.521" style="fill:#fff"/><path d="M19.206,14.306a17.68,17.68,0,0,1,2.711,2.346c.938,1.2.938,1.408.938,1.408l-.678.313a7.1,7.1,0,0,0-2.137-2.5c-1.2-.678-1.355-1.251-1.355-1.251Z" style="fill:#efcca3"/><path d="M16.235,13.68a3.605,3.605,0,0,0-2.346,1.147c-.73.626-2.033,1.043-2.5,1.616a4.806,4.806,0,0,0-1.46,1.981,8.9,8.9,0,0,0-.313,2.242c0,.261.052.313-.626,0A7.972,7.972,0,0,1,6.8,18.789c.156.886,1.251,1.668,1.355,2.5.313,2.19,2.5,3.284,7.872,3.284h.365" style="fill:#ccac8d"/><path d="M21.239,17.277a6.552,6.552,0,0,0-5.109-2.607h0a6.638,6.638,0,0,0-5.109,2.607,3.861,3.861,0,0,0-1.043,3.18c0,4.64,1.616,3.232,2.711,3.806a7.466,7.466,0,0,0,3.389.313h0a7.4,7.4,0,0,0,3.389-.313c1.095-.573,2.711.834,2.711-3.806A3.386,3.386,0,0,0,21.239,17.277Z" style="fill:#7a4a43"/><path d="M16.026,15.974a9.549,9.549,0,0,1-.469,2.554l.573-.156Z" style="fill:#6A4A47"/><path d="M16.182,15.974a9.549,9.549,0,0,0,.469,2.554l-.573-.156Z" style="fill:#6A4A47"/><path d="M14.358,15.453c-.209-.521.573-1.355,1.825-1.355s2.033.834,1.825,1.355-1.043.678-1.825.678C15.348,16.13,14.566,15.974,14.358,15.453Z" style="fill:#7a4a43"/><path d="M16.182,15.974c0-.1.73-.1,1.147-.365,0,0-.834.261-.991.156a.656.656,0,0,1-.209-.365.656.656,0,0,1-.209.365c-.156.1-1.095-.156-1.095-.156a8.058,8.058,0,0,1,1.2.365v.417a10.492,10.492,0,0,0,.1,2.033c.156.209.1-1.46.1-2.033A1.3,1.3,0,0,1,16.182,15.974Z"/><path d="M16.182,18.945a3.35,3.35,0,0,1,1.616.678,3.121,3.121,0,0,0-1.616-1.095,3.036,3.036,0,0,0-1.825,1.2A3.312,3.312,0,0,1,16.182,18.945Z" style="fill:#9B6B66"/><path d="M16.078,22.8a8.9,8.9,0,0,1-2.4-.469c-.156-.052-.313.052-.469,0a6.172,6.172,0,0,1-3.18-2.137v.209c0,4.64,1.616,3.232,2.711,3.806a7.466,7.466,0,0,0,3.389.313h0a7.4,7.4,0,0,0,3.389-.313c1.095-.573,2.711.834,2.711-3.806v-.469A5.914,5.914,0,0,1,19,22.282c-.156.052-.417-.052-.573-.052A7.045,7.045,0,0,1,16.078,22.8Z" style="fill:#6A4A47"/><path d="M13.941,20.3s-.573,1.668-.156,2.4l-.521-.209A15.433,15.433,0,0,1,13.941,20.3Z" style="fill:#6A4A47"/><path d="M18.32,20.3s.573,1.668.156,2.4L19,22.491A10.629,10.629,0,0,0,18.32,20.3Z" style="fill:#6A4A47"/><path d="M12.585,11.908c-.209.678-.886,3.024.469,2.242a2.557,2.557,0,0,0-.938,1.564,1.831,1.831,0,0,1-1.3,1.408A3.479,3.479,0,0,1,8.258,16.5a2.956,2.956,0,0,1-.678-3.284,2.43,2.43,0,0,1,2.137-1.616C10.709,11.334,12.794,11.126,12.585,11.908Z" style="fill:#ccac8d"/><path d="M16.13,18.528a3.393,3.393,0,0,1,2.45,2.867v-.1a3.051,3.051,0,0,0-2.45-2.919,3,3,0,0,0-2.45,2.919v.1A3.463,3.463,0,0,1,16.13,18.528Z"/><ellipse cx="16.546" cy="15.138" rx="0.156" ry="0.313" transform="translate(-3.256 4.611) rotate(-14.46)" style="fill:#331712"/><ellipse cx="15.609" cy="15.146" rx="0.313" ry="0.156" transform="translate(-3.482 25.567) rotate(-72.765)" style="fill:#331712"/><circle cx="10.031" cy="14.41" r="1.929"/><circle cx="10.552" cy="13.524" r="0.521" style="fill:#fff"/><path d="M16.7,14.41s-.521.209-.626.261a2.492,2.492,0,0,1-.626-.261H16.7Z" style="fill:#7f4a41"/><path d="M12.9,14.306a17.68,17.68,0,0,0-2.711,2.346c-.938,1.2-.938,1.408-.938,1.408l.678.313a7.1,7.1,0,0,1,2.137-2.5c1.2-.678,1.355-1.251,1.355-1.251Z" style="fill:#efcca3"/><path d="M9.092,10.813a4.519,4.519,0,0,1-1.929,2.294A2.19,2.19,0,0,0,9.092,10.813Z" style="fill:#ccac8d"/><path d="M22.908,10.813a4.519,4.519,0,0,0,1.929,2.294A2.19,2.19,0,0,1,22.908,10.813Z" style="fill:#ccac8d"/><path d="M19.31,13.836a5.16,5.16,0,0,0-3.076-1.408h.156a3.852,3.852,0,0,0-3.024,1.408,4.832,4.832,0,0,1,3.024-1.043h0A5.785,5.785,0,0,1,19.31,13.836Z" style="fill:#ccac8d"/><path d="M17.746,10.969a2.455,2.455,0,0,0-1.564-.938h.156a1.786,1.786,0,0,0-1.512.938,2.187,2.187,0,0,1,1.512-.678h0A1.894,1.894,0,0,1,17.746,10.969Z" style="fill:#ccac8d"/><path d="M10.031,17.746a2.545,2.545,0,0,1-1.773.209H8.05a3.68,3.68,0,0,1-.886-1.512A2.27,2.27,0,0,0,10.031,17.746Z" style="fill:#ccac8d"/><path d="M22.126,17.746a2.545,2.545,0,0,0,1.773.209H23.69a1.749,1.749,0,0,0,1.095-1.512A2.02,2.02,0,0,1,22.126,17.746Z" style="fill:#ccac8d"/><path d="M11.23,10.709a4.75,4.75,0,0,1,2.242.1c.938.313.209,1.564.365,1.616a2.865,2.865,0,0,1,2.242-.73c1.773.1,1.981.886,2.242.73.261-.1-.261-2.19,2.45-1.72,0,0-2.763-.73-2.659,1.251a3.675,3.675,0,0,0-3.858-.1S14.827,9.927,11.23,10.709Z" style="fill:#ccac8d"/><path d="M10.5,8s-2.4,2.972-2.711,4.118c-.365,1.147-.626,5.943-.938,6.621L5.756,14.045l2.033-4.9Z" style="fill:#ccac8d"/><path d="M21.656,8s2.4,2.972,2.711,4.118c.365,1.147.626,5.943.938,6.621L26.4,14.045l-2.033-4.9Z" style="fill:#ccac8d"/><path d="M21.5,8a11.617,11.617,0,0,1,3.284,4.588c.73,2.45.417,5.474.991,5.839.834.521,1.72-2.607,2.033-2.919.469-.521,2.085-1.877,2.19-2.137s-3.232-3.91-4.744-4.64C23.585,7.893,21.4,7.789,21.5,8Z" style="fill:#56332b"/><path d="M23.69,9.3a15.379,15.379,0,0,1,2.972,8.654l1.2-2.45A16.564,16.564,0,0,0,23.69,9.3Z" style="fill:#6A4A47"/><path d="M10.5,8a11.617,11.617,0,0,0-3.284,4.588c-.73,2.45-.417,5.474-.991,5.839-.834.521-1.72-2.607-2.033-2.919-.469-.521-2.085-1.877-2.19-2.137s3.232-3.91,4.744-4.64C8.415,7.893,10.6,7.789,10.5,8Z" style="fill:#56332b"/><path d="M8.31,9.3a15.379,15.379,0,0,0-2.972,8.654L4.14,15.5A16.564,16.564,0,0,1,8.31,9.3Z" style="fill:#6A4A47"/><path d="M6.642,18.007a4.118,4.118,0,0,0,.573,1.564c.365.365.1-.313.1-.313s-.365-.209-.313-1.72S6.642,18.007,6.642,18.007Z" style="fill:#ccac8d"/><path d="M25.41,18.007a4.118,4.118,0,0,1-.573,1.564c-.365.365-.1-.313-.1-.313s.365-.209.313-1.72C24.993,16.078,25.41,18.007,25.41,18.007Z" style="fill:#ccac8d"/><circle cx="13.889" cy="17.121" r="0.156" style="fill:#6A4A47"/><circle cx="12.846" cy="18.216" r="0.156" style="fill:#6A4A47"/><circle cx="12.533" cy="17.121" r="0.156" style="fill:#6A4A47"/><circle cx="18.164" cy="17.121" r="0.156" style="fill:#442823"/><circle cx="19.154" cy="18.216" r="0.156" style="fill:#442823"/><circle cx="19.467" cy="17.121" r="0.156" style="fill:#442823"/></symbol>
    <!-- CSS -->
    <symbol viewBox="0 0 33 34" fill="none" xmlns="http://www.w3.org/2000/svg" id='css'><g clip-path="url(#a)"><path d="M2.06.5h28.88l-2.63 29.65-11.84 3.35-11.78-3.35-2.63-29.65Zm23.5 6.07h-18.12l.3 3.6h13.91l-.35 3.74h-9.13l.33 3.53h8.5l-.5 4.85-4 1.1-4.07-1.11-.25-2.9h-3.6l.4 5.3 7.52 2.34 7.39-2.1 1.67-18.35Z" fill="#1572B6"/></g><defs><clipPath id="a"><path fill="#fff" transform="translate(0 .5)" d="M0 0h33v33h-33z"/></clipPath></defs></symbol>
    <!-- Sass -->
    <symbol viewBox="0 0 33 34" fill="none" xmlns="http://www.w3.org/2000/svg" id='sass'><g clip-path="url(#a)"><path d="M16.5.5a16.5 16.5 0 1 1 0 33 16.5 16.5 0 0 1 0-33Zm-3.28 22a4.2 4.2 0 0 1-.03 2.46l-.1.25a4.63 4.63 0 0 1-.87 1.36c-.95 1.04-2.3 1.43-2.87 1.1-.61-.36-.3-1.83.8-3.01 1.2-1.26 2.92-2.07 2.92-2.07l.15-.1Zm13.63-14.94c-.75-2.93-5.6-3.9-10.2-2.26-2.74.97-5.7 2.5-7.83 4.5-2.54 2.36-2.94 4.42-2.78 5.28.6 3.04 4.76 5.03 6.47 6.5v.02c-.5.24-4.2 2.1-5.07 4.02-.93 2.02.15 3.46.85 3.65 2.16.6 4.4-.5 5.59-2.27a5.7 5.7 0 0 0 .55-5.05 6.41 6.41 0 0 1 2.52-.15c2.89.33 3.47 2.15 3.34 2.9a1.98 1.98 0 0 1-.93 1.29c-.2.12-.26.16-.24.25.02.12.12.12.28.1a2.28 2.28 0 0 0 1.57-2.02c.06-1.77-1.63-3.75-4.64-3.71a7.44 7.44 0 0 0-2.58.35.5.5 0 0 0-.14-.15c-1.86-2-5.3-3.4-5.16-6.06.04-.97.4-3.53 6.6-6.62 5.1-2.54 9.16-1.83 9.86-.29 1.01 2.2-2.16 6.31-7.46 6.91-2.03.23-3.08-.55-3.35-.85-.28-.3-.33-.33-.43-.26-.16.08-.06.35 0 .51.17.42.8 1.14 1.92 1.5.97.32 3.34.5 6.19-.6 3.2-1.25 5.69-4.7 4.97-7.58l.1.1Z" fill="#C69"/></g><defs><clipPath id="a"><path fill="#fff" transform="translate(0 .5)" d="M0 0h33v33h-33z"/></clipPath></defs></symbol>
    <!-- JavaScript -->
    <symbol viewBox="0 0 33 34" fill="none" xmlns="http://www.w3.org/2000/svg" id='js'><g clip-path="url(#a)"><path d="M0 .5h33v33h-33v-33Zm30.3 25.13c-.24-1.5-1.22-2.77-4.13-3.95-1.01-.48-2.14-.8-2.47-1.57-.13-.45-.15-.7-.07-.97.21-.89 1.26-1.15 2.09-.9.53.16 1.03.57 1.34 1.23 1.42-.93 1.42-.93 2.41-1.54a5.67 5.67 0 0 0-.8-1.08c-.87-.97-2.02-1.46-3.9-1.42l-.97.12c-.93.23-1.82.73-2.35 1.39a4.31 4.31 0 0 0 .78 6.14c1.88 1.4 4.62 1.71 4.97 3.03.33 1.61-1.2 2.13-2.7 1.94-1.12-.24-1.73-.8-2.41-1.83l-2.52 1.44c.29.66.62.95 1.11 1.53 2.4 2.41 8.38 2.29 9.45-1.38.04-.13.33-.97.1-2.27l.07.09Zm-12.35-9.96h-3.1v7.98c0 1.7.08 3.25-.2 3.73-.45.94-1.62.82-2.15.66a2.65 2.65 0 0 1-1.14-1.18c-.09-.14-.15-.27-.18-.27l-2.5 1.55a4.86 4.86 0 0 0 1.81 2.08c1.18.7 2.76.93 4.41.56 1.08-.3 2-.95 2.5-1.94.7-1.28.55-2.84.54-4.6.02-2.82 0-5.65 0-8.5v-.07Z" fill="#F7DF1E"/></g><defs><clipPath id="a"><path fill="#fff" transform="translate(0 .5)" d="M0 0h33v33h-33z"/></clipPath></defs></symbol>
    <!-- React -->
    <symbol xmlns="http://www.w3.org/2000/svg" viewBox="0 0 128 128" enable-background="new 0 0 128 128" id='react'><g fill="#61DAFB"><circle cx="64" cy="64" r="11.4"/><path d="M107.3 45.2c-2.2-.8-4.5-1.6-6.9-2.3.6-2.4 1.1-4.8 1.5-7.1 2.1-13.2-.2-22.5-6.6-26.1-1.9-1.1-4-1.6-6.4-1.6-7 0-15.9 5.2-24.9 13.9-9-8.7-17.9-13.9-24.9-13.9-2.4 0-4.5.5-6.4 1.6-6.4 3.7-8.7 13-6.6 26.1.4 2.3.9 4.7 1.5 7.1-2.4.7-4.7 1.4-6.9 2.3-12.5 4.8-19.3 11.4-19.3 18.8s6.9 14 19.3 18.8c2.2.8 4.5 1.6 6.9 2.3-.6 2.4-1.1 4.8-1.5 7.1-2.1 13.2.2 22.5 6.6 26.1 1.9 1.1 4 1.6 6.4 1.6 7.1 0 16-5.2 24.9-13.9 9 8.7 17.9 13.9 24.9 13.9 2.4 0 4.5-.5 6.4-1.6 6.4-3.7 8.7-13 6.6-26.1-.4-2.3-.9-4.7-1.5-7.1 2.4-.7 4.7-1.4 6.9-2.3 12.5-4.8 19.3-11.4 19.3-18.8s-6.8-14-19.3-18.8zm-14.8-30.5c4.1 2.4 5.5 9.8 3.8 20.3-.3 2.1-.8 4.3-1.4 6.6-5.2-1.2-10.7-2-16.5-2.5-3.4-4.8-6.9-9.1-10.4-13 7.4-7.3 14.9-12.3 21-12.3 1.3 0 2.5.3 3.5.9zm-11.2 59.3c-1.8 3.2-3.9 6.4-6.1 9.6-3.7.3-7.4.4-11.2.4-3.9 0-7.6-.1-11.2-.4-2.2-3.2-4.2-6.4-6-9.6-1.9-3.3-3.7-6.7-5.3-10 1.6-3.3 3.4-6.7 5.3-10 1.8-3.2 3.9-6.4 6.1-9.6 3.7-.3 7.4-.4 11.2-.4 3.9 0 7.6.1 11.2.4 2.2 3.2 4.2 6.4 6 9.6 1.9 3.3 3.7 6.7 5.3 10-1.7 3.3-3.4 6.6-5.3 10zm8.3-3.3c1.5 3.5 2.7 6.9 3.8 10.3-3.4.8-7 1.4-10.8 1.9 1.2-1.9 2.5-3.9 3.6-6 1.2-2.1 2.3-4.2 3.4-6.2zm-25.6 27.1c-2.4-2.6-4.7-5.4-6.9-8.3 2.3.1 4.6.2 6.9.2 2.3 0 4.6-.1 6.9-.2-2.2 2.9-4.5 5.7-6.9 8.3zm-18.6-15c-3.8-.5-7.4-1.1-10.8-1.9 1.1-3.3 2.3-6.8 3.8-10.3 1.1 2 2.2 4.1 3.4 6.1 1.2 2.2 2.4 4.1 3.6 6.1zm-7-25.5c-1.5-3.5-2.7-6.9-3.8-10.3 3.4-.8 7-1.4 10.8-1.9-1.2 1.9-2.5 3.9-3.6 6-1.2 2.1-2.3 4.2-3.4 6.2zm25.6-27.1c2.4 2.6 4.7 5.4 6.9 8.3-2.3-.1-4.6-.2-6.9-.2-2.3 0-4.6.1-6.9.2 2.2-2.9 4.5-5.7 6.9-8.3zm22.2 21l-3.6-6c3.8.5 7.4 1.1 10.8 1.9-1.1 3.3-2.3 6.8-3.8 10.3-1.1-2.1-2.2-4.2-3.4-6.2zm-54.5-16.2c-1.7-10.5-.3-17.9 3.8-20.3 1-.6 2.2-.9 3.5-.9 6 0 13.5 4.9 21 12.3-3.5 3.8-7 8.2-10.4 13-5.8.5-11.3 1.4-16.5 2.5-.6-2.3-1-4.5-1.4-6.6zm-24.7 29c0-4.7 5.7-9.7 15.7-13.4 2-.8 4.2-1.5 6.4-2.1 1.6 5 3.6 10.3 6 15.6-2.4 5.3-4.5 10.5-6 15.5-13.8-4-22.1-10-22.1-15.6zm28.5 49.3c-4.1-2.4-5.5-9.8-3.8-20.3.3-2.1.8-4.3 1.4-6.6 5.2 1.2 10.7 2 16.5 2.5 3.4 4.8 6.9 9.1 10.4 13-7.4 7.3-14.9 12.3-21 12.3-1.3 0-2.5-.3-3.5-.9zm60.8-20.3c1.7 10.5.3 17.9-3.8 20.3-1 .6-2.2.9-3.5.9-6 0-13.5-4.9-21-12.3 3.5-3.8 7-8.2 10.4-13 5.8-.5 11.3-1.4 16.5-2.5.6 2.3 1 4.5 1.4 6.6zm9-15.6c-2 .8-4.2 1.5-6.4 2.1-1.6-5-3.6-10.3-6-15.6 2.4-5.3 4.5-10.5 6-15.5 13.8 4 22.1 10 22.1 15.6 0 4.7-5.8 9.7-15.7 13.4z"/></g></symbol>
    <!-- Git -->
    <symbol viewBox="0 0 33 34" fill="none" xmlns="http://www.w3.org/2000/svg" id='git'><g clip-path="url(#a)"><path d="m32.38 15.53-14.41-14.4a2.13 2.13 0 0 0-3.01 0l-2.99 2.98 3.8 3.8a2.53 2.53 0 0 1 3.2 3.22l3.65 3.65a2.52 2.52 0 0 1 2.62 4.18 2.53 2.53 0 0 1-4.14-2.74l-3.42-3.4v8.97a2.53 2.53 0 1 1-2.91 4.05 2.52 2.52 0 0 1 .83-4.13v-9.06a2.52 2.52 0 0 1-1.37-3.31l-3.73-3.75-9.88 9.87a2.14 2.14 0 0 0 0 3.01l14.4 14.4c.84.84 2.18.84 3.01 0l14.35-14.33c.83-.83.83-2.18 0-3.01Z" fill="#F05032"/></g><defs><clipPath id="a"><path fill="#fff" transform="translate(0 .5)" d="M0 0h33v33h-33z"/></clipPath></defs></symbol>
    <!-- Gulp -->
    <symbol viewBox="0 0 33 34" fill="none" xmlns="http://www.w3.org/2000/svg" id='gulp'><g clip-path="url(#a)"><path d="M8.16 6.95c-.46 0-.93.11-1.4.3-.46.2-.92.49-1.38.84-.48.38-.93.8-1.33 1.26a15.3 15.3 0 0 0-1.22 1.6 18.9 18.9 0 0 0-2.54 5.88 11.92 11.92 0 0 0-.29 2.14v.13c0 .36.05.73.1 1.07.1.36.25.7.43.99.2.29.44.53.74.7.3.2.65.3 1.07.3.36 0 .73-.09 1.12-.26a7.3 7.3 0 0 0 2.24-1.57c.28-.26.54-.54.8-.8l-.27.83c-.12.4-.25.79-.35 1.17a23 23 0 0 0-.3 1.02c-.07.3-.12.5-.12.62v.3c0 .33.03.56.14.71a.55.55 0 0 0 .46.2.6.6 0 0 0 .36-.12c.11-.08.2-.19.3-.3v-.01c.08-.12.16-.25.23-.39.07-.13.1-.26.15-.37l.1-.33.19-.68.26-.9.31-1.04.31-1.03a39.78 39.78 0 0 1 .5-1.58l.07-.21.02-.05.06.03.02-.07c.1-.3.21-.59.32-.86.1-.28.2-.55.28-.82.2-.57.31-1.17.3-1.78a.88.88 0 0 0-.06-.35.6.6 0 0 0-.17-.24.69.69 0 0 0-.24-.14.86.86 0 0 0-.78.13c-.18.12-.31.32-.41.58l-.76 2.43c-.12.25-.27.48-.43.7-.67.95-1.46 1.8-2.35 2.53-.29.23-.56.4-.83.55-.2.12-.45.2-.69.2a.66.66 0 0 1-.43-.14.88.88 0 0 1-.28-.38 2.18 2.18 0 0 1-.14-.53c-.02-.2-.04-.39-.04-.58 0-.57.1-1.2.28-1.92a18.13 18.13 0 0 1 3.09-6.2c.44-.55.88-.97 1.34-1.3.45-.34.85-.5 1.24-.5.24 0 .48.06.68.2.2.13.4.36.58.68.18.35.37.63.53.83.16.2.35.31.56.31a.7.7 0 0 0 .57-.29c.16-.19.23-.45.23-.76 0-.13-.01-.28-.04-.42a1.2 1.2 0 0 0-.2-.46 4.55 4.55 0 0 0-1.38-1.41c-.47-.28-1-.43-1.55-.44Zm15.07 1.18c-.2 0-.4.06-.56.16-.2.15-.36.36-.44.6l-2.6 6.54-.57 1.44-.62 1.58c-.1.24-.17.5-.24.75l-.35.3a4.7 4.7 0 0 1-.81.5c-.26.13-.47.18-.64.18-.11 0-.19-.03-.24-.08-.05-.04-.07-.11-.07-.22 0-.26.03-.54.11-.85a12.06 12.06 0 0 1 .68-1.89l.38-.88.29-.74c.06-.16.1-.34.12-.52a.98.98 0 0 0-.2-.6.65.65 0 0 0-.54-.26.64.64 0 0 0-.52.25 5.4 5.4 0 0 0-.63 1.32 14.23 14.23 0 0 1-.86 1.87c-.22.4-.48.8-.76 1.16-.29.36-.6.66-.93.9-.33.24-.68.36-1.03.36-.12 0-.2-.05-.23-.12a.65.65 0 0 1-.07-.31c0-.28.06-.58.15-.89a11.4 11.4 0 0 1 .7-1.77l.4-.77.34-.64c.1-.19.15-.34.19-.46a.83.83 0 0 0 .03-.2c0-.1-.02-.2-.07-.3a.72.72 0 0 0-.47-.32.9.9 0 0 0-.8.14c-.19.12-.32.32-.44.58a31.78 31.78 0 0 0-1.66 4.2c-.1.3-.18.63-.23.95l-.03.32c0 .3.04.56.13.76.1.2.2.37.34.5.14.12.31.21.5.26.18.05.37.08.56.08a3.44 3.44 0 0 0 2.16-.76 4.27 4.27 0 0 0 1.19-1.34c-.05.3-.1.6-.1.85 0 .45.08.78.27.98a.96.96 0 0 0 .72.3c.29 0 .6-.08.96-.24.34-.15.7-.36 1.05-.61.1-.06.18-.13.27-.2v.05c.04.18.1.34.2.49h.01a1.18 1.18 0 0 0 1.02.45c.35 0 .7-.08 1.08-.24a5.9 5.9 0 0 0 1.11-.66c.37-.27.75-.6 1.12-.96h.01l-.19.43-.92 2.02c-.32.69-.65 1.37-.95 2.05l-.14.39c-.05.12-.12.26-.16.4-.05.15-.1.28-.13.43-.04.15-.05.3-.05.43 0 .29.08.5.23.62a1.03 1.03 0 0 0 1 .05h.01a1.51 1.51 0 0 0 .63-.73c.09-.16.15-.33.22-.5v-.01l.11-.34.23-.6.26-.7.27-.72.24-.6.13-.35.11-.26.19-.43.22-.51.23-.52.2-.47.14-.31.42-.78c.17-.29.35-.56.54-.85l.64-.8c.22-.26.45-.48.69-.69.23-.19.47-.36.71-.47.22-.11.45-.17.69-.18.12 0 .2.03.24.06a.18.18 0 0 1 .06.14c0 .1-.06.28-.2.48-.14.22-.3.46-.51.72l-.7.82-.7.86c-.2.27-.4.54-.57.83-.14.23-.23.47-.28.73v.04c-.01.02-.02.02-.02.05v.08a1 1 0 0 0 .38.83c.25.21.6.3 1.05.3.48 0 .92-.09 1.33-.28.41-.18.83-.43 1.27-.76.43-.33.88-.71 1.36-1.16a63.6 63.6 0 0 1 1.63-1.48 1.43 1.43 0 0 0 .48-1.05.87.87 0 0 0-.11-.45.38.38 0 0 0-.34-.2.5.5 0 0 0-.23.06c-.07.03-.15.08-.23.14-.15.04.02.08.04.14-.74.67-1.38 1.22-1.89 1.66-.52.46-.96.81-1.3 1.09-.25.2-.52.39-.79.56a.95.95 0 0 1-.4.16c-.1 0-.18-.03-.21-.06a.2.2 0 0 1-.06-.15.3.3 0 0 1 .05-.1l.16-.2.55-.65.69-.82a10.45 10.45 0 0 0 1.23-1.9c.13-.32.21-.63.21-.92a1.15 1.15 0 0 0-.53-1 1.7 1.7 0 0 0-.51-.25c-.48-.13-.99-.1-1.44.1-.29.13-.56.28-.82.46a7.83 7.83 0 0 0-1.3 1.14l.05-.24.05-.29.01-.2a.73.73 0 0 0-.17-.52c-.12-.12-.3-.18-.55-.18-.17 0-.33.1-.47.27a3 3 0 0 0-.36.57c-.1.21-.2.44-.28.66l-.18.52-.2.67a.44.44 0 0 0-.06.02.45.45 0 0 0-.2.12h.01l-.55.53c-.2.2-.41.4-.63.59l-.68.56a8.83 8.83 0 0 1-1.22.8c-.13.07-.28.11-.43.12-.08 0-.11-.02-.13-.05a.43.43 0 0 1-.05-.22c0-.15.03-.33.09-.53l.18-.53.04-.04.51-1.31c.2-.5.4-1.03.64-1.59l.7-1.72.7-1.7.65-1.51.5-1.17c.09-.16.14-.3.2-.44.04-.13.07-.27.07-.4 0-.28-.09-.49-.25-.62a.83.83 0 0 0-.53-.18Z" fill="#FF6B6B"/></g><defs><clipPath id="a"><path fill="#fff" transform="translate(0 .5)" d="M0 0h33v33h-33z"/></clipPath></defs></symbol>
    <!-- Webpack -->
  <symbol viewBox="0 0 33 34" fill="none" xmlns="http://www.w3.org/2000/svg" id='webpack'><g clip-path="url(#a)"><path d="m30.52 25.93-13.43 7.57v-5.9l8.37-4.58 5.06 2.91Zm.92-.82v-15.83l-4.91 2.83v10.17l4.91 2.83Zm-28.96.82 13.43 7.57v-5.9l-8.37-4.58-5.06 2.91Zm-.92-.82v-15.83l4.91 2.83v10.17l-4.91 2.83Zm.57-16.85 13.78-7.76v5.7l-8.83 4.83-.06.04-4.89-2.81Zm28.74 0-13.78-7.76v5.7l8.83 4.83.06.04 4.89-2.81Zm-14.96 18-8.26-4.51v-8.96l8.26 4.75v8.73Zm1.18 0 8.26-4.51v-8.96l-8.26 4.75v8.73Zm-8.88-14.5 8.3-4.55 8.28 4.54-8.29 4.77-8.29-4.77Z" fill="#8DD6F9"/></g><defs><clipPath id="a"><path fill="#fff" transform="translate(0 .5)" d="M0 0h33v33h-33z"/></clipPath></defs></symbol>
    <!-- REACT ROUTER -->
  <!-- <symbol id='react-router' width="800px" height="800px" viewBox="0 -58 256 256" version="1.1" xmlns="http://www.w3.org/2000/svg" xmlns:xlink="http://www.w3.org/1999/xlink" preserveAspectRatio="xMidYMid">
	  <g>
		  <path d="M78.0659341,92.5875806 C90.8837956,92.5875806 101.274726,82.1966508 101.274726,69.3787894 C101.274726,56.5609279 90.8837956,46.1699982 78.0659341,46.1699982 C65.2480726,46.1699982 54.8571429,56.5609279 54.8571429,69.3787894 C54.8571429,82.1966508 65.2480726,92.5875806 78.0659341,92.5875806 Z M23.2087913,139.005163 C36.0266526,139.005163 46.4175825,128.614233 46.4175825,115.796372 C46.4175825,102.97851 36.0266526,92.5875806 23.2087913,92.5875806 C10.3909298,92.5875806 0,102.97851 0,115.796372 C0,128.614233 10.3909298,139.005163 23.2087913,139.005163 Z M232.791209,139.005163 C245.60907,139.005163 256,128.614233 256,115.796372 C256,102.97851 245.60907,92.5875806 232.791209,92.5875806 C219.973347,92.5875806 209.582418,102.97851 209.582418,115.796372 C209.582418,128.614233 219.973347,139.005163 232.791209,139.005163 Z" fill="#000000">
      </path>
		  <path d="M156.565464,70.3568084 C155.823426,62.6028163 155.445577,56.1490255 149.505494,51.6131676 C141.982638,45.8687002 133.461166,49.5960243 122.964463,45.8072968 C112.650326,43.3121427 105,34.1545727 105,23.2394367 C105,10.4046502 115.577888,0 128.626373,0 C138.29063,0 146.599638,5.70747659 150.259573,13.8825477 C155.861013,24.5221258 152.220489,35.3500418 159.258242,40.8041273 C167.591489,47.2621895 178.826167,42.5329154 191.362109,48.6517412 C195.390112,50.5026944 198.799584,53.4384578 201.202056,57.0769224 C203.604528,60.7153869 205,65.0565524 205,69.7183101 C205,80.633446 197.349674,89.7910161 187.035538,92.2861702 C176.538834,96.0748977 168.017363,92.3475736 160.494506,98.092041 C152.03503,104.551712 156.563892,115.358642 149.669352,126.774447 C145.756163,134.291567 137.802119,139.43662 128.626373,139.43662 C115.577888,139.43662 105,129.03197 105,116.197184 C105,106.873668 110.581887,98.832521 118.637891,95.1306146 C131.173833,89.0117889 142.408511,93.7410629 150.741758,87.2830007 C155.549106,83.5574243 156.565464,77.8102648 156.565464,70.3568084 Z" fill="#D0021B">
      </path>
	  </g>
  </symbol> -->
    <!-- <symbol id='dark-theme' viewBox="0 0 45 44" fill="none" xmlns="http://www.w3.org/2000/svg"><mask id="a" style="mask-type:alpha" maskUnits="userSpaceOnUse" x="0" y="0" width="45" height="44"><path fill="#D9D9D9" d="M.07 0h44v44h-44z"/></mask><g mask="url(#a)"><path d="M22.12 37.58c-4.34 0-8.02-1.5-11.05-4.53a15.04 15.04 0 0 1-4.53-11.05c0-3.62 1.12-6.83 3.36-9.65a15.19 15.19 0 0 1 8.95-5.44 1.63 1.63 0 0 1 1.73.55 1.6 1.6 0 0 1 .1 1.8 8.85 8.85 0 0 0-1.12 4.49c0 3 1.05 5.56 3.15 7.66a10.45 10.45 0 0 0 10.24 2.81c.83-.22 1.54-.49 2.16-.79a1.63 1.63 0 0 1 1.61.15c.23.15.4.36.5.63.12.26.13.57.04.93-.65 3.6-2.4 6.58-5.26 8.92a15.12 15.12 0 0 1-9.88 3.52Zm0-2.75a12.86 12.86 0 0 0 11.92-8.02c-.61.16-1.22.28-1.83.37a13.08 13.08 0 0 1-11.44-3.83 13.08 13.08 0 0 1-3.82-11.43c.09-.61.2-1.23.36-1.84a12.86 12.86 0 0 0-8.02 11.92c0 3.54 1.25 6.57 3.76 9.07a12.34 12.34 0 0 0 9.07 3.76Z" fill="#BE87E6"/></g></symbol> -->
    <!-- LIGHT THEME -->
  </svg>
