<svg viewBox="0 0 44 44" fill="none" xmlns="http://www.w3.org/2000/svg"><g clip-path="url(#a)"><path d="M21.9 0a22 22 0 1 0 .2 44 22 22 0 0 0-.2-44Zm9.1 13.24c.18 0 .58.05.85.26.17.15.28.37.31.6.03.17.07.56.04.86a258.96 258.96 0 0 1-2.5 15.82c-.3 1.65-.91 2.2-1.5 2.25-1.28.12-2.25-.84-3.48-1.65-1.94-1.27-3.03-2.06-4.91-3.3-2.18-1.43-.77-2.22.47-3.5.32-.34 5.95-5.46 6.06-5.92.02-.06.03-.28-.1-.4-.13-.1-.32-.07-.46-.04-.19.05-3.28 2.1-9.27 6.14-.88.6-1.68.9-2.4.88-.78-.02-2.29-.45-3.41-.81-1.38-.45-2.47-.69-2.38-1.45.05-.4.6-.8 1.64-1.21 6.41-2.8 10.69-4.64 12.83-5.53 6.1-2.54 7.38-2.98 8.2-3Z" fill="#5B3F8D"/></g><defs><clipPath id="a"><path fill="#fff" d="M0 0h44v44h-44z"/></clipPath></defs></svg>
