<svg viewBox="0 0 33 34" fill="none" xmlns="http://www.w3.org/2000/svg"><g clip-path="url(#a)"><path d="m30.52 25.93-13.43 7.57v-5.9l8.37-4.58 5.06 2.91Zm.92-.82v-15.83l-4.91 2.83v10.17l4.91 2.83Zm-28.96.82 13.43 7.57v-5.9l-8.37-4.58-5.06 2.91Zm-.92-.82v-15.83l4.91 2.83v10.17l-4.91 2.83Zm.57-16.85 13.78-7.76v5.7l-8.83 4.83-.06.04-4.89-2.81Zm28.74 0-13.78-7.76v5.7l8.83 4.83.06.04 4.89-2.81Zm-14.96 18-8.26-4.51v-8.96l8.26 4.75v8.73Zm1.18 0 8.26-4.51v-8.96l-8.26 4.75v8.73Zm-8.88-14.5 8.3-4.55 8.28 4.54-8.29 4.77-8.29-4.77Z" fill="#8DD6F9"/></g><defs><clipPath id="a"><path fill="#fff" transform="translate(0 .5)" d="M0 0h33v33h-33z"/></clipPath></defs></svg>