<svg viewBox="0 0 44 44" fill="none" xmlns="http://www.w3.org/2000/svg"><g clip-path="url(#a)"><path d="M32.03 26.37a92.15 92.15 0 0 0-3.72-1.78c-.5-.18-.86-.27-1.23.28a31.4 31.4 0 0 1-1.72 2.13c-.32.37-.64.41-1.18.14-.55-.27-2.3-.85-4.38-2.7a16.4 16.4 0 0 1-3.03-3.78c-.32-.54-.04-.84.23-1.1.25-.25.55-.65.82-.96.27-.32.36-.55.55-.91.18-.37.09-.68-.05-.96-.14-.27-1.22-2.95-1.68-4.04-.44-1.06-.89-.92-1.22-.94l-1.05-.02a2 2 0 0 0-1.45.69c-.5.54-1.9 1.86-1.9 4.54 0 2.68 1.95 5.27 2.22 5.64.27.36 3.84 5.86 9.3 8.22 1.3.56 2.32.9 3.11 1.15 1.3.41 2.5.36 3.43.21 1.05-.15 3.22-1.31 3.68-2.59.45-1.27.45-2.36.32-2.59-.14-.22-.5-.36-1.05-.63Zm-9.94 13.57a18.1 18.1 0 0 1-9.23-2.53l-.66-.39-6.86 1.8 1.83-6.69-.43-.68a18.15 18.15 0 0 1 15.36-27.76 18 18 0 0 1 12.81 5.3 18.01 18.01 0 0 1 5.3 12.83c0 9.99-8.13 18.12-18.12 18.12Zm15.43-33.55a21.66 21.66 0 0 0-15.43-6.39 21.83 21.83 0 0 0-18.9 32.7l-3.09 11.3 11.56-3.03a21.78 21.78 0 0 0 10.42 2.65h.01a21.84 21.84 0 0 0 15.43-37.23Z" fill="#BE87E6"/></g><defs><clipPath id="a"><path fill="#fff" d="M0 0h44v44h-44z"/></clipPath></defs></svg>
